<svg width="89" height="30" viewBox="0 0 89 30" fill="none" xmlns="http://www.w3.org/2000/svg">
<g clip-path="url(#clip0)">
<path d="M81.9126 -2.45703e-05H7.09141C6.81867 -2.45703e-05 6.54921 -2.45703e-05 6.2772 0.00147543C6.0495 0.00297543 5.82362 0.00733293 5.59373 0.0110004C5.09432 0.0169268 4.59607 0.0612326 4.10334 0.143533C3.61129 0.227625 3.13466 0.386162 2.68956 0.613783C2.24501 0.843329 1.8388 1.1416 1.48569 1.49778C1.13072 1.85295 0.834831 2.26349 0.60939 2.7136C0.383328 3.16281 0.226576 3.64418 0.144548 4.14109C0.0617393 4.63736 0.0171794 5.13937 0.0112678 5.64259C0.00436581 5.87254 0.00363693 6.10325 0 6.33323V23.6689C0.00363693 23.9018 0.00436581 24.1274 0.0112678 24.3604C0.0171812 24.8635 0.0617411 25.3655 0.144548 25.8618C0.226349 26.359 0.383111 26.8406 0.60939 27.29C0.834728 27.7387 1.13066 28.1475 1.48569 28.5007C1.83746 28.8585 2.24393 29.157 2.68956 29.3848C3.13465 29.613 3.61123 29.7725 4.10334 29.8579C4.59616 29.9395 5.09435 29.9838 5.59373 29.9905C5.82362 29.9956 6.0495 29.9985 6.2772 29.9985C6.54921 30 6.81869 30 7.09141 30H81.9126C82.1799 30 82.4515 30 82.7188 29.9985C82.9454 29.9985 83.1779 29.9956 83.4045 29.9905C83.9029 29.9842 84.4002 29.9398 84.892 29.8579C85.3857 29.7719 85.864 29.6124 86.3112 29.3848C86.7564 29.1568 87.1625 28.8584 87.514 28.5007C87.8681 28.1461 88.1647 27.7376 88.3928 27.29C88.6174 26.8403 88.7727 26.3587 88.8533 25.8618C88.9362 25.3655 88.9823 24.8636 88.9913 24.3604C88.9942 24.1274 88.9942 23.9018 88.9942 23.6689C89 23.3965 89 23.1255 89 22.8486V7.15207C89 6.87742 89 6.60496 88.9942 6.33323C88.9942 6.10325 88.9942 5.87254 88.9913 5.64256C88.9823 5.13929 88.9362 4.6374 88.8533 4.14106C88.7724 3.64444 88.6172 3.1631 88.3928 2.71357C87.9337 1.81137 87.2057 1.07699 86.3112 0.613715C85.864 0.386651 85.3856 0.228156 84.892 0.143465C84.4003 0.0608025 83.903 0.0164813 83.4045 0.0108954C83.1779 0.00723543 82.9454 0.00284043 82.7188 0.00137793C82.4515 -0.00012207 82.1799 -0.00012207 81.9126 -0.00012207V-2.45703e-05Z" fill="#A6A6A6"/>
<path d="M6.28082 29.3438C6.05422 29.3438 5.83309 29.3408 5.60826 29.3357C5.14251 29.3296 4.67785 29.2887 4.21809 29.2134C3.78938 29.1389 3.37409 29.0005 2.98589 28.8025C2.60125 28.6061 2.25044 28.3487 1.94687 28.04C1.63892 27.735 1.38253 27.3812 1.18787 26.9926C0.991066 26.6016 0.854866 26.1824 0.784015 25.7498C0.707501 25.2848 0.666104 24.8147 0.66018 24.3435C0.655465 24.1853 0.649292 23.6587 0.649292 23.6587V6.33325C0.649292 6.33325 0.655867 5.8147 0.660218 5.66235C0.665889 5.19186 0.707046 4.72249 0.78333 4.2583C0.854313 3.82444 0.990618 3.40406 1.18753 3.01172C1.38147 2.62346 1.63644 2.2694 1.94254 1.96326C2.24829 1.65422 2.60024 1.39545 2.98553 1.19641C3.37283 0.99907 3.78734 0.861549 4.21518 0.788453C4.67645 0.712377 5.14272 0.671247 5.61009 0.665408L6.28119 0.65625H82.7152L83.3943 0.665775C83.8574 0.671324 84.3194 0.712087 84.7765 0.787717C85.2086 0.861731 85.6275 1.00021 86.0192 1.19861C86.7911 1.59974 87.4191 2.23437 87.8154 3.01355C88.0091 3.40318 88.1433 3.82013 88.2134 4.25024C88.2906 4.71824 88.3338 5.1913 88.3427 5.66565C88.3448 5.87805 88.3448 6.1062 88.3448 6.33325C88.3507 6.6145 88.3507 6.8822 88.3507 7.1521V22.8486C88.3507 23.1211 88.3507 23.387 88.3448 23.655C88.3448 23.8989 88.3448 24.1223 88.3419 24.3523C88.3332 24.8182 88.2908 25.2828 88.2148 25.7424C88.1454 26.1782 88.01 26.6006 87.8132 26.9949C87.6172 27.3792 87.3622 27.7299 87.0578 28.0342C86.754 28.3445 86.4026 28.6035 86.017 28.8011C85.6264 29.0005 85.2082 29.1396 84.7765 29.2134C84.3167 29.2891 83.852 29.33 83.3863 29.3357C83.1684 29.3408 82.9403 29.3438 82.7188 29.3438L81.9126 29.3452L6.28082 29.3438Z" fill="black"/>
<path d="M18.4218 15.2255C18.4298 14.5995 18.5947 13.9857 18.9011 13.4412C19.2076 12.8968 19.6456 12.4393 20.1745 12.1114C19.8385 11.6276 19.3953 11.2294 18.88 10.9485C18.3647 10.6675 17.7916 10.5117 17.2061 10.4932C15.9571 10.361 14.7464 11.2468 14.1099 11.2468C13.4612 11.2468 12.4813 10.5063 11.4261 10.5282C10.7436 10.5504 10.0784 10.7506 9.49541 11.1091C8.9124 11.4677 8.43143 11.9724 8.09937 12.5741C6.66096 15.0854 7.73389 18.7762 9.11176 20.8062C9.80115 21.8002 10.6068 22.9105 11.6611 22.8711C12.6927 22.828 13.078 22.2078 14.3232 22.2078C15.5569 22.2078 15.9184 22.8711 16.994 22.8461C18.101 22.828 18.7985 21.8477 19.4637 20.8443C19.959 20.136 20.3401 19.3532 20.593 18.5249C19.9499 18.2506 19.401 17.7914 19.0149 17.2047C18.6288 16.618 18.4226 15.9296 18.4218 15.2255Z" fill="white"/>
<path d="M16.3901 9.15813C16.9937 8.42747 17.2911 7.48834 17.2191 6.54016C16.2969 6.63783 15.4452 7.08225 14.8334 7.78487C14.5343 8.12812 14.3053 8.52745 14.1593 8.96002C14.0134 9.3926 13.9534 9.84994 13.9828 10.3059C14.444 10.3107 14.9003 10.2099 15.3173 10.0111C15.7343 9.81226 16.1011 9.52062 16.3901 9.15813Z" fill="white"/>
<path d="M31.4622 20.3546H27.9418L27.0964 22.872H25.6052L28.9397 13.5585H30.489L33.8235 22.872H32.3069L31.4622 20.3546ZM28.3064 19.193H31.0969L29.7213 15.1076H29.6828L28.3064 19.193Z" fill="white"/>
<path d="M41.025 19.4772C41.025 21.5873 39.905 22.943 38.2148 22.943C37.7867 22.9656 37.3609 22.8662 36.9862 22.6561C36.6115 22.446 36.3031 22.1337 36.0962 21.755H36.0642V25.1183H34.682V16.0817H36.0199V17.2111H36.0453C36.2617 16.8342 36.5754 16.5236 36.9529 16.3122C37.3305 16.1008 37.7578 15.9966 38.1894 16.0107C39.8984 16.0107 41.025 17.373 41.025 19.4772ZM39.6043 19.4772C39.6043 18.1025 38.8997 17.1986 37.8248 17.1986C36.7687 17.1986 36.0584 18.1215 36.0584 19.4772C36.0584 20.8454 36.7687 21.7616 37.8248 21.7616C38.8998 21.7616 39.6043 20.8644 39.6043 19.4772Z" fill="white"/>
<path d="M48.4363 19.4772C48.4363 21.5873 47.3163 22.943 45.6262 22.943C45.198 22.9656 44.7722 22.8662 44.3975 22.656C44.0228 22.4459 43.7144 22.1337 43.5075 21.755H43.4755V25.1183H42.0933V16.0817H43.4312V17.2111H43.4566C43.673 16.8342 43.9867 16.5236 44.3642 16.3122C44.7418 16.1008 45.1691 15.9966 45.6007 16.0107C47.3098 16.0107 48.4363 17.373 48.4363 19.4772ZM47.0156 19.4772C47.0156 18.1025 46.3111 17.1986 45.2361 17.1986C44.1801 17.1986 43.4697 18.1215 43.4697 19.4772C43.4697 20.8454 44.1801 21.7616 45.2361 21.7616C46.3111 21.7616 47.0156 20.8644 47.0156 19.4772H47.0156Z" fill="white"/>
<path d="M53.3346 20.277C53.437 21.2006 54.3267 21.807 55.5426 21.807C56.7076 21.807 57.5458 21.2006 57.5458 20.3678C57.5458 19.6449 57.0402 19.2121 55.8433 18.9154L54.6463 18.6246C52.9504 18.2116 52.163 17.4117 52.163 16.1139C52.163 14.507 53.5517 13.4032 55.5237 13.4032C57.4753 13.4032 58.8132 14.507 58.8582 16.1139H57.4629C57.3794 15.1844 56.6175 14.6234 55.5041 14.6234C54.3906 14.6234 53.6287 15.191 53.6287 16.0172C53.6287 16.6757 54.1153 17.0631 55.3058 17.3597L56.3233 17.6117C58.2183 18.0636 59.0056 18.8312 59.0056 20.1935C59.0056 21.9359 57.6293 23.0272 55.4401 23.0272C53.3919 23.0272 52.009 21.9615 51.9197 20.2769L53.3346 20.277Z" fill="white"/>
<path d="M61.9886 14.4747V16.0817H63.2691V17.1854H61.9886V20.9288C61.9886 21.5104 62.245 21.7814 62.8079 21.7814C62.9599 21.7787 63.1117 21.7679 63.2626 21.7491V22.8463C63.0095 22.894 62.7523 22.9156 62.4949 22.9107C61.1316 22.9107 60.5999 22.3944 60.5999 21.0775V17.1854H59.6208V16.0817H60.5999V14.4747H61.9886Z" fill="white"/>
<path d="M64.0107 19.4772C64.0107 17.3407 65.2585 15.9982 67.2044 15.9982C69.1567 15.9982 70.3987 17.3407 70.3987 19.4772C70.3987 21.6195 69.1632 22.9562 67.2044 22.9562C65.2462 22.9562 64.0107 21.6195 64.0107 19.4772ZM68.9904 19.4772C68.9904 18.0116 68.3243 17.1466 67.2044 17.1466C66.0844 17.1466 65.4191 18.0182 65.4191 19.4772C65.4191 20.9486 66.0844 21.807 67.2044 21.807C68.3243 21.807 68.9903 20.9486 68.9903 19.4772H68.9904Z" fill="white"/>
<path d="M71.5383 16.0818H72.8565V17.2375H72.8885C72.9777 16.8765 73.1874 16.5575 73.4824 16.3341C73.7773 16.1107 74.1396 15.9965 74.5082 16.0107C74.6675 16.0101 74.8263 16.0276 74.9818 16.0627V17.3664C74.7807 17.3045 74.5709 17.276 74.3607 17.2822C74.1599 17.274 73.9598 17.3097 73.7739 17.3868C73.5881 17.464 73.4211 17.5808 73.2842 17.7292C73.1474 17.8776 73.044 18.0542 72.9812 18.2467C72.9185 18.4392 72.8977 18.6431 72.9205 18.8444V22.872H71.5383L71.5383 16.0818Z" fill="white"/>
<path d="M81.3544 20.8776C81.1685 22.1102 79.978 22.9562 78.4549 22.9562C76.4961 22.9562 75.2802 21.6327 75.2802 19.5094C75.2802 17.3795 76.5026 15.9982 78.3968 15.9982C80.2598 15.9982 81.4314 17.2887 81.4314 19.3475V19.8251H76.6755V19.9093C76.6535 20.1592 76.6845 20.4109 76.7665 20.6478C76.8484 20.8847 76.9794 21.1013 77.1508 21.2832C77.3221 21.4651 77.5298 21.6082 77.7602 21.7029C77.9906 21.7976 78.2383 21.8419 78.4869 21.8326C78.8135 21.8635 79.1413 21.7872 79.4215 21.6151C79.7017 21.4431 79.9193 21.1844 80.042 20.8776L81.3544 20.8776ZM76.682 18.851H80.0485C80.0609 18.6263 80.0271 18.4014 79.9493 18.1905C79.8714 17.9796 79.7512 17.7872 79.5961 17.6254C79.441 17.4635 79.2544 17.3358 79.048 17.2501C78.8417 17.1645 78.62 17.1227 78.3968 17.1276C78.1718 17.1262 77.9486 17.1698 77.7404 17.2559C77.5321 17.3419 77.3428 17.4687 77.1833 17.629C77.0239 17.7892 76.8975 17.9797 76.8115 18.1894C76.7254 18.3991 76.6814 18.624 76.682 18.851V18.851Z" fill="white"/>
<path d="M28.1332 6.54829C28.423 6.52732 28.7137 6.57147 28.9846 6.67754C29.2554 6.78362 29.4994 6.94898 29.6992 7.1617C29.899 7.37441 30.0494 7.62919 30.1397 7.90764C30.23 8.18609 30.2579 8.48129 30.2214 8.77192C30.2214 10.2016 29.4551 11.0234 28.1332 11.0234H26.5302V6.54829H28.1332ZM27.2195 10.3905H28.0562C28.2633 10.403 28.4705 10.3688 28.6628 10.2903C28.8551 10.2119 29.0276 10.0912 29.1678 9.93698C29.308 9.78281 29.4123 9.59905 29.4732 9.39909C29.5341 9.19912 29.55 8.98798 29.5197 8.78104C29.5478 8.57492 29.5303 8.36509 29.4684 8.16659C29.4066 7.96809 29.302 7.78584 29.1622 7.63289C29.0223 7.47994 28.8506 7.36009 28.6594 7.28191C28.4682 7.20373 28.2622 7.16917 28.0562 7.1807H27.2195V10.3905Z" fill="white"/>
<path d="M31 9.33334C30.9789 9.1114 31.0041 8.88747 31.0739 8.67592C31.1437 8.46437 31.2565 8.26986 31.4052 8.10488C31.554 7.93989 31.7352 7.80807 31.9374 7.71786C32.1396 7.62765 32.3582 7.58105 32.5793 7.58105C32.8004 7.58105 33.0191 7.62765 33.2213 7.71786C33.4235 7.80807 33.6047 7.93989 33.7534 8.10488C33.9021 8.26986 34.015 8.46437 34.0848 8.67592C34.1546 8.88747 34.1798 9.1114 34.1587 9.33334C34.1802 9.5555 34.1553 9.77974 34.0857 9.99163C34.0161 10.2035 33.9033 10.3984 33.7545 10.5637C33.6058 10.729 33.4244 10.8611 33.222 10.9515C33.0196 11.0419 32.8007 11.0886 32.5793 11.0886C32.358 11.0886 32.1391 11.0419 31.9367 10.9515C31.7343 10.8611 31.5529 10.729 31.4042 10.5637C31.2554 10.3984 31.1426 10.2035 31.073 9.99163C31.0034 9.77974 30.9785 9.5555 31 9.33334ZM33.4789 9.33334C33.4789 8.60129 33.1528 8.17319 32.5804 8.17319C32.0059 8.17319 31.6827 8.60129 31.6827 9.33335C31.6827 10.0713 32.0059 10.4961 32.5804 10.4961C33.1528 10.4961 33.4789 10.0683 33.4789 9.33334H33.4789Z" fill="white"/>
<path d="M38.3576 11.0233H37.6719L36.9798 8.53601H36.9275L36.2382 11.0233H35.5591L34.6359 7.64612H35.3063L35.9063 10.2231H35.9556L36.6442 7.64612H37.2783L37.9668 10.2231H38.0191L38.6161 7.64612H39.2771L38.3576 11.0233Z" fill="white"/>
<path d="M40.0535 7.64615H40.6898V8.18265H40.7392C40.823 7.98996 40.9643 7.82843 41.1434 7.72057C41.3226 7.61272 41.5306 7.56391 41.7386 7.58096C41.9015 7.56861 42.0652 7.59338 42.2173 7.65346C42.3695 7.71353 42.5063 7.80736 42.6176 7.92799C42.729 8.04862 42.812 8.19297 42.8604 8.35033C42.9089 8.5077 42.9217 8.67405 42.8978 8.83706V11.0233H42.2368V9.00443C42.2368 8.46171 42.003 8.19181 41.5142 8.19181C41.4035 8.18661 41.2931 8.2056 41.1904 8.24747C41.0877 8.28934 40.9952 8.35311 40.9193 8.4344C40.8433 8.51569 40.7857 8.61258 40.7503 8.71842C40.715 8.82427 40.7028 8.93658 40.7145 9.04764V11.0233H40.0535L40.0535 7.64615Z" fill="white"/>
<path d="M43.9509 6.32776H44.6119V11.0233H43.9509V6.32776Z" fill="white"/>
<path d="M45.5306 9.33328C45.5096 9.11133 45.5348 8.88739 45.6046 8.67583C45.6744 8.46427 45.7873 8.26975 45.936 8.10476C46.0848 7.93977 46.266 7.80795 46.4682 7.71774C46.6704 7.62753 46.8891 7.58093 47.1102 7.58093C47.3313 7.58093 47.55 7.62753 47.7522 7.71774C47.9544 7.80795 48.1357 7.93977 48.2844 8.10476C48.4331 8.26975 48.546 8.46427 48.6158 8.67583C48.6856 8.88739 48.7108 9.11133 48.6898 9.33328C48.7112 9.55546 48.6863 9.77969 48.6167 9.99159C48.547 10.2035 48.4342 10.3983 48.2855 10.5636C48.1367 10.729 47.9553 10.861 47.7529 10.9514C47.5505 11.0418 47.3316 11.0885 47.1102 11.0885C46.8888 11.0885 46.6699 11.0418 46.4675 10.9514C46.2651 10.861 46.0837 10.729 45.935 10.5636C45.7862 10.3983 45.6734 10.2035 45.6038 9.99159C45.5341 9.77969 45.5092 9.55546 45.5306 9.33328ZM48.0096 9.33328C48.0096 8.60123 47.6834 8.17313 47.1111 8.17313C46.5366 8.17313 46.2134 8.60123 46.2134 9.33329C46.2134 10.0712 46.5366 10.496 47.1111 10.496C47.6835 10.496 48.0096 10.0683 48.0096 9.33328H48.0096Z" fill="white"/>
<path d="M49.3856 10.0682C49.3856 9.46032 49.8345 9.10986 50.6312 9.06005L51.5384 9.00732V8.71582C51.5384 8.35913 51.3045 8.15771 50.8528 8.15771C50.4838 8.15771 50.2282 8.29431 50.1548 8.53308H49.5149C49.5825 7.953 50.1236 7.58093 50.8833 7.58093C51.7229 7.58093 52.1965 8.00243 52.1965 8.71582V11.0233H51.5602V10.5487H51.5079C51.4018 10.7189 51.2527 10.8577 51.076 10.9509C50.8993 11.0441 50.7012 11.0882 50.502 11.079C50.3614 11.0937 50.2193 11.0786 50.0848 11.0346C49.9504 10.9905 49.8266 10.9186 49.7214 10.8234C49.6162 10.7281 49.532 10.6117 49.4742 10.4817C49.4163 10.3516 49.3862 10.2108 49.3856 10.0682ZM51.5384 9.77965V9.49731L50.7206 9.55004C50.2594 9.58117 50.0502 9.73937 50.0502 10.0371C50.0502 10.3411 50.3117 10.5179 50.6712 10.5179C50.7766 10.5287 50.883 10.518 50.9841 10.4864C51.0853 10.4548 51.1791 10.4031 51.26 10.3342C51.3409 10.2653 51.4073 10.1807 51.4551 10.0854C51.5029 9.99018 51.5313 9.88619 51.5384 9.77965Z" fill="white"/>
<path d="M53.0651 9.33326C53.0651 8.26613 53.6091 7.5901 54.4553 7.5901C54.6646 7.58037 54.8723 7.63093 55.0542 7.73585C55.2361 7.84077 55.3845 7.99572 55.4823 8.1826H55.5317V6.32776H56.1926V11.0233H55.5593V10.4897H55.507C55.4017 10.6754 55.248 10.8284 55.0626 10.9322C54.8773 11.0361 54.6672 11.0868 54.4553 11.079C53.6033 11.079 53.0651 10.403 53.0651 9.33326ZM53.7479 9.33326C53.7479 10.0496 54.0827 10.4806 54.6427 10.4806C55.1998 10.4806 55.5441 10.0434 55.5441 9.3362C55.5441 8.63234 55.1962 8.18885 54.6427 8.18885C54.0863 8.18885 53.7479 8.62281 53.7479 9.33326H53.7479Z" fill="white"/>
<path d="M58.9272 9.33326C58.9272 8.26613 59.4713 7.5901 60.3174 7.5901C60.5267 7.58037 60.7344 7.63093 60.9163 7.73585C61.0982 7.84077 61.2467 7.99572 61.3444 8.1826H61.3938V6.32776H62.0548V11.0233H61.4214V10.4897H61.3691C61.2638 10.6754 61.1101 10.8284 60.9247 10.9322C60.7394 11.0361 60.5293 11.0868 60.3174 11.079C59.4654 11.079 58.9272 10.403 58.9272 9.33326ZM59.61 9.33326C59.61 10.0496 59.9448 10.4806 60.5048 10.4806C61.0619 10.4806 61.4062 10.0434 61.4062 9.3362C61.4062 8.63234 61.0583 8.18885 60.5048 8.18885C59.9484 8.18885 59.61 8.62281 59.61 9.33326Z" fill="white"/>
<path d="M63.0527 6.64752C63.0476 6.56119 63.0683 6.47531 63.1122 6.401C63.1561 6.32669 63.221 6.26738 63.2987 6.23074C63.3764 6.1941 63.4632 6.18182 63.5479 6.1955C63.6325 6.20918 63.7112 6.24818 63.7736 6.30746C63.8361 6.36674 63.8794 6.44356 63.8981 6.52796C63.9167 6.61237 63.9098 6.70048 63.8782 6.78088C63.8466 6.86128 63.7918 6.93027 63.7209 6.9789C63.65 7.02753 63.5663 7.05357 63.4805 7.05364C63.4257 7.05646 63.3709 7.04807 63.3194 7.02899C63.2678 7.0099 63.2207 6.9805 63.1807 6.94256C63.1408 6.90463 63.1088 6.85893 63.0868 6.80823C63.0648 6.75753 63.0532 6.70286 63.0527 6.64752ZM63.1508 7.64617H63.8095V11.0234H63.1508V7.64617Z" fill="white"/>
</g>
<defs>
<clipPath id="clip0">
<rect width="89" height="30" fill="white"/>
</clipPath>
</defs>
</svg>
