<svg width="102" height="30" viewBox="0 0 102 30" fill="none" xmlns="http://www.w3.org/2000/svg">
<g clip-path="url(#clip0)">
<path d="M98.2222 0H3.77778C1.69137 0 0 1.67893 0 3.75V26.25C0 28.3211 1.69137 30 3.77778 30H98.2222C100.309 30 102 28.3211 102 26.25V3.75C102 1.67893 100.309 0 98.2222 0Z" fill="black"/>
<path d="M98.2222 0.6C99.0638 0.6 99.871 0.931874 100.466 1.52261C101.061 2.11335 101.396 2.91457 101.396 3.75V26.25C101.396 27.0854 101.061 27.8866 100.466 28.4774C99.871 29.0681 99.0638 29.4 98.2222 29.4H3.77778C2.93616 29.4 2.12901 29.0681 1.53389 28.4774C0.938777 27.8866 0.604445 27.0854 0.604445 26.25V3.75C0.604445 2.91457 0.938777 2.11335 1.53389 1.52261C2.12901 0.931874 2.93616 0.6 3.77778 0.6H98.2222ZM98.2222 0H3.77778C2.7819 0.0192006 1.83221 0.420453 1.12789 1.1196C0.423567 1.81874 0.0193428 2.76145 0 3.75V26.25C0 27.2446 0.398015 28.1984 1.10649 28.9016C1.81496 29.6049 2.77585 30 3.77778 30H98.2222C99.2242 30 100.185 29.6049 100.894 28.9016C101.602 28.1984 102 27.2446 102 26.25V3.75C102 2.75544 101.602 1.80161 100.894 1.09835C100.185 0.395088 99.2242 0 98.2222 0Z" fill="#A6A6A6"/>
<path d="M51.4533 16.35C51.0338 16.3397 50.6165 16.4142 50.2268 16.5688C49.8371 16.7235 49.4831 16.9552 49.1864 17.2497C48.8896 17.5443 48.6562 17.8957 48.5004 18.2825C48.3446 18.6693 48.2696 19.0836 48.28 19.5C48.2088 19.9596 48.2385 20.429 48.3671 20.8761C48.4958 21.3232 48.7203 21.7374 49.0253 22.0903C49.3303 22.4432 49.7086 22.7265 50.1342 22.9207C50.5598 23.1149 51.0227 23.2154 51.4911 23.2154C51.9595 23.2154 52.4224 23.1149 52.848 22.9207C53.2736 22.7265 53.6519 22.4432 53.9569 22.0903C54.2619 21.7374 54.4864 21.3232 54.6151 20.8761C54.7437 20.429 54.7734 19.9596 54.7022 19.5C54.7131 19.077 54.636 18.6563 54.4756 18.2642C54.3151 17.8722 54.075 17.5172 53.77 17.2215C53.465 16.9259 53.1019 16.6958 52.7032 16.5459C52.3046 16.3959 51.8791 16.3292 51.4533 16.35ZM51.4533 21.45C51.0598 21.4802 50.6662 21.3919 50.3239 21.1968C49.9816 21.0016 49.7065 20.7087 49.5344 20.3561C49.3622 20.0035 49.3011 19.6075 49.359 19.22C49.4169 18.8324 49.591 18.4711 49.8587 18.1832C50.1265 17.8952 50.4754 17.6941 50.86 17.6059C51.2446 17.5176 51.647 17.5465 52.0148 17.6886C52.3827 17.8308 52.6988 18.0796 52.9221 18.4027C53.1454 18.7258 53.2655 19.1082 53.2667 19.5C53.2768 19.7463 53.2379 19.9921 53.1522 20.2235C53.0665 20.4548 52.9357 20.6671 52.7673 20.8482C52.5989 21.0294 52.3961 21.1757 52.1707 21.279C51.9452 21.3822 51.7014 21.4404 51.4533 21.45ZM44.4267 16.35C44.0071 16.3397 43.5898 16.4142 43.2001 16.5688C42.8104 16.7235 42.4565 16.9552 42.1597 17.2497C41.8629 17.5443 41.6296 17.8957 41.4738 18.2825C41.318 18.6693 41.243 19.0836 41.2533 19.5C41.1821 19.9596 41.2118 20.429 41.3405 20.8761C41.4691 21.3232 41.6936 21.7374 41.9986 22.0903C42.3036 22.4432 42.6819 22.7265 43.1075 22.9207C43.5331 23.1149 43.996 23.2154 44.4644 23.2154C44.9329 23.2154 45.3957 23.1149 45.8213 22.9207C46.2469 22.7265 46.6252 22.4432 46.9302 22.0903C47.2352 21.7374 47.4598 21.3232 47.5884 20.8761C47.717 20.429 47.7468 19.9596 47.6755 19.5C47.6865 19.077 47.6093 18.6563 47.4489 18.2642C47.2885 17.8722 47.0483 17.5172 46.7433 17.2215C46.4384 16.9259 46.0752 16.6958 45.6766 16.5459C45.278 16.3959 44.8524 16.3292 44.4267 16.35ZM44.4267 21.45C44.0331 21.4802 43.6395 21.3919 43.2972 21.1968C42.9549 21.0016 42.6798 20.7087 42.5077 20.3561C42.3356 20.0035 42.2745 19.6075 42.3323 19.22C42.3902 18.8324 42.5643 18.4711 42.8321 18.1832C43.0998 17.8952 43.4487 17.6941 43.8333 17.6059C44.2179 17.5176 44.6203 17.5465 44.9882 17.6886C45.356 17.8308 45.6722 18.0796 45.8955 18.4027C46.1188 18.7258 46.2388 19.1082 46.24 19.5C46.2501 19.7463 46.2112 19.9921 46.1255 20.2235C46.0399 20.4548 45.9091 20.6671 45.7406 20.8482C45.5722 21.0294 45.3695 21.1757 45.144 21.279C44.9185 21.3822 44.6748 21.4404 44.4267 21.45ZM36.04 17.325V18.675H39.3644C39.2853 19.2879 39.022 19.8629 38.6089 20.325C38.2889 20.682 37.8914 20.962 37.4463 21.1439C37.0013 21.3258 36.5204 21.4049 36.04 21.375C35.0913 21.3554 34.1881 20.9675 33.5243 20.2945C32.8604 19.6214 32.4887 18.717 32.4889 17.775C32.4856 17.0786 32.6859 16.3963 33.0654 15.8106C33.445 15.2249 33.9875 14.7611 34.6272 14.4754C35.267 14.1896 35.9765 14.0941 36.6698 14.2006C37.3631 14.307 38.0104 14.6108 38.5333 15.075L39.5155 14.175C39.0697 13.7083 38.5297 13.3402 37.9308 13.0947C37.332 12.8491 36.6877 12.7317 36.04 12.75C35.3284 12.6632 34.6065 12.7275 33.9218 12.9385C33.2371 13.1495 32.6054 13.5024 32.0685 13.9739C31.5316 14.4454 31.1016 15.0248 30.8072 15.6736C30.5127 16.3224 30.3605 17.0259 30.3605 17.7375C30.3605 18.4491 30.5127 19.1526 30.8072 19.8015C31.1016 20.4503 31.5316 21.0296 32.0685 21.5011C32.6054 21.9727 33.2371 22.3256 33.9218 22.5366C34.6065 22.7476 35.3284 22.8118 36.04 22.725C36.699 22.7446 37.355 22.628 37.9663 22.3827C38.5776 22.1374 39.1309 21.7687 39.5911 21.3C40.3371 20.4189 40.7394 19.3009 40.7244 18.15C40.741 17.8728 40.7155 17.5947 40.6489 17.325H36.04ZM70.3422 18.375C70.0768 17.7335 69.5956 17.203 68.9805 16.874C68.3655 16.5449 67.6545 16.4376 66.9687 16.5702C66.2829 16.7028 65.6646 17.0672 65.219 17.6014C64.7733 18.1355 64.5279 18.8065 64.5244 19.5C64.5144 19.92 64.589 20.3376 64.744 20.7285C64.8989 21.1194 65.1311 21.4756 65.4267 21.7761C65.7224 22.0765 66.0757 22.3153 66.4657 22.4783C66.8557 22.6412 67.2746 22.7251 67.6978 22.725C68.2344 22.729 68.7638 22.6009 69.2384 22.3523C69.713 22.1036 70.1182 21.7421 70.4178 21.3L69.2844 20.55C69.1239 20.826 68.8924 21.0548 68.6137 21.2129C68.3349 21.3711 68.0188 21.4529 67.6978 21.45C67.3781 21.4489 67.0656 21.3564 66.7975 21.1835C66.5295 21.0105 66.3174 20.7646 66.1867 20.475L70.4178 18.675L70.3422 18.375ZM65.96 19.425C65.9274 19.1902 65.9462 18.9513 66.015 18.7243C66.0838 18.4974 66.2011 18.2878 66.3588 18.1099C66.5165 17.932 66.711 17.7899 66.929 17.6933C67.1471 17.5967 67.3835 17.5478 67.6222 17.55C67.8648 17.552 68.1028 17.6149 68.3142 17.733C68.5256 17.851 68.7035 18.0203 68.8311 18.225L65.96 19.425ZM62.4089 22.5H63.8444V13.125H62.4089V22.5ZM60.1422 17.025H60.0667C59.8564 16.7984 59.5986 16.6204 59.3113 16.5037C59.024 16.3871 58.7144 16.3346 58.4044 16.35C57.9912 16.3499 57.5821 16.4319 57.2013 16.5911C56.8204 16.7503 56.4755 16.9835 56.1868 17.277C55.8982 17.5706 55.6716 17.9185 55.5204 18.3002C55.3693 18.682 55.2966 19.0899 55.3067 19.5C55.2966 19.9137 55.3688 20.3253 55.5191 20.7113C55.6693 21.0973 55.8947 21.4501 56.1824 21.7496C56.4701 22.0491 56.8144 22.2894 57.1957 22.4568C57.5769 22.6241 57.9877 22.7153 58.4044 22.725C58.7195 22.726 59.0311 22.6595 59.318 22.5301C59.6049 22.4007 59.8602 22.2113 60.0667 21.975H60.1422V22.425C60.1534 22.8242 60.0247 23.2148 59.7782 23.5303C59.5316 23.8457 59.1825 24.0666 58.7902 24.1551C58.398 24.2435 57.987 24.1942 57.6273 24.0155C57.2676 23.8368 56.9815 23.5397 56.8178 23.175L55.5333 23.7C55.772 24.259 56.172 24.7353 56.6829 25.069C57.1939 25.4027 57.7929 25.5787 58.4044 25.575C60.0667 25.575 61.4267 24.6 61.4267 22.2V16.5H60.1422V17.025ZM58.48 21.45C58.235 21.4407 57.9945 21.3823 57.7729 21.2781C57.5514 21.1739 57.3534 21.0262 57.191 20.844C57.0285 20.6617 56.905 20.4486 56.8279 20.2176C56.7507 19.9866 56.7216 19.7425 56.7422 19.5C56.7422 19.0425 56.9253 18.6038 57.2512 18.2803C57.5771 17.9568 58.0191 17.775 58.48 17.775C58.9409 17.775 59.3829 17.9568 59.7088 18.2803C60.0347 18.6038 60.2178 19.0425 60.2178 19.5C60.2384 19.7425 60.2092 19.9866 60.1321 20.2176C60.055 20.4486 59.9315 20.6617 59.769 20.844C59.6066 21.0262 59.4086 21.1739 59.1871 21.2781C58.9655 21.3823 58.725 21.4407 58.48 21.45ZM76.9156 13.125H73.5156V22.5H74.9511V18.975H76.9156C77.3025 18.975 77.6857 18.8994 78.0432 18.7524C78.4007 18.6054 78.7255 18.3899 78.9992 18.1183C79.2728 17.8467 79.4898 17.5242 79.6379 17.1694C79.786 16.8145 79.8622 16.4341 79.8622 16.05C79.8622 15.6659 79.786 15.2856 79.6379 14.9307C79.4898 14.5758 79.2728 14.2533 78.9992 13.9817C78.7255 13.7101 78.4007 13.4947 78.0432 13.3477C77.6857 13.2007 77.3025 13.125 76.9156 13.125ZM76.9911 17.625H74.9511V14.4H76.9911C77.4187 14.4193 77.8224 14.6017 78.1179 14.909C78.4135 15.2164 78.5782 15.6251 78.5778 16.05C78.5778 16.4677 78.4106 16.8683 78.113 17.1637C77.8155 17.4591 77.4119 17.625 76.9911 17.625ZM85.68 16.275C85.1686 16.2384 84.6578 16.3546 84.2135 16.6085C83.7692 16.8625 83.4115 17.2426 83.1867 17.7L84.3955 18.225C84.5234 18.0034 84.712 17.8224 84.9393 17.7029C85.1667 17.5835 85.4235 17.5304 85.68 17.55C85.8588 17.5292 86.0399 17.5438 86.213 17.593C86.3861 17.6422 86.5475 17.725 86.6881 17.8366C86.8287 17.9483 86.9455 18.0865 87.0319 18.2433C87.1182 18.4001 87.1723 18.5723 87.1911 18.75V18.9C86.7244 18.658 86.2065 18.5295 85.68 18.525C84.32 18.525 82.96 19.275 82.96 20.625C82.9792 20.9109 83.055 21.1902 83.1833 21.4468C83.3115 21.7035 83.4895 21.9325 83.7072 22.1207C83.9248 22.3088 84.1778 22.4525 84.4515 22.5433C84.7252 22.6341 85.0143 22.6704 85.3022 22.65C85.6594 22.6866 86.0197 22.6214 86.3408 22.462C86.662 22.3026 86.9307 22.0556 87.1156 21.75H87.1911V22.5H88.5511V18.9C88.5525 18.5355 88.4773 18.1747 88.3305 17.8407C88.1836 17.5066 87.9683 17.2065 87.6982 16.9596C87.4281 16.7126 87.1092 16.5242 86.7617 16.4064C86.4142 16.2885 86.0458 16.2438 85.68 16.275ZM85.5289 21.45C85 21.45 84.3955 21.225 84.3955 20.625C84.3955 20.025 85.2267 19.65 85.9067 19.65C86.3521 19.6524 86.7913 19.7549 87.1911 19.95C87.1377 20.3549 86.9414 20.7278 86.637 21.0025C86.3326 21.2771 85.94 21.4357 85.5289 21.45ZM93.4622 16.5L91.8756 20.55H91.8L90.1378 16.5H88.6267L91.12 22.2L89.6844 25.35H91.1955L95.0489 16.5H93.4622ZM80.7689 22.5H82.2044V13.125H80.7689V22.5Z" fill="white"/>
<path d="M7.85776 5.625C7.6277 5.92487 7.5198 6.29974 7.55554 6.675V23.325C7.5198 23.7003 7.6277 24.0751 7.85776 24.375H7.93332L17.3022 15.075L7.93332 5.625H7.85776Z" fill="url(#paint0_linear)"/>
<path d="M20.4 18.225L17.3022 15.075L20.4 11.775H20.4755L24.1777 13.95C25.2355 14.55 25.2355 15.525 24.1777 16.05L20.4755 18.15L20.4 18.225Z" fill="url(#paint1_linear)"/>
<path d="M20.4756 18.15L17.3022 15L7.85779 24.375C8.07779 24.5649 8.35955 24.6695 8.65112 24.6695C8.9427 24.6695 9.22445 24.5649 9.44446 24.375L20.4756 18.15Z" fill="url(#paint2_linear)"/>
<path d="M20.4756 11.8499L9.44446 5.62495C9.21325 5.46012 8.93577 5.37146 8.65112 5.37146C8.36647 5.37146 8.08899 5.46012 7.85779 5.62495L17.3022 14.9999L20.4756 11.8499Z" fill="url(#paint3_linear)"/>
<path opacity="0.2" d="M20.4 18.075L9.44446 24.3C9.22081 24.4483 8.95788 24.5275 8.68891 24.5275C8.41993 24.5275 8.157 24.4483 7.93335 24.3C8.14114 24.4844 8.41013 24.5864 8.68891 24.5864C8.96768 24.5864 9.23667 24.4844 9.44446 24.3L20.4756 18.075H20.4Z" fill="black"/>
<path opacity="0.12" d="M7.85776 24.225C7.6277 23.9252 7.5198 23.5503 7.55554 23.175V23.325C7.5198 23.7003 7.6277 24.0752 7.85776 24.375V24.225Z" fill="black"/>
<path opacity="0.12" d="M24.1778 15.975L20.4 18.075H20.4756L24.1778 16.05C24.7067 15.75 25.0089 15.375 25.0089 15C24.9426 15.2092 24.835 15.4032 24.6922 15.5706C24.5495 15.738 24.3747 15.8755 24.1778 15.975Z" fill="black"/>
<path opacity="0.25" d="M9.44443 5.69996L24.1778 14.025C24.3746 14.1245 24.5495 14.262 24.6922 14.4294C24.8349 14.5968 24.9426 14.7908 25.0089 15C25.0089 14.625 24.7067 14.25 24.1778 13.95L9.44443 5.62496C8.38665 5.02496 7.55554 5.47496 7.55554 6.67496V6.82496C7.55554 5.62496 8.38665 5.09996 9.44443 5.69996Z" fill="white"/>
<path d="M33.0178 9.75H32.4133V5.775H31.1289V5.25H34.3022V5.775H33.0178V9.75Z" fill="white" stroke="white" stroke-width="0.2" stroke-miterlimit="10"/>
<path d="M37.6267 5.775H35.5867V7.2H37.4756V7.8H35.5867V9.225H37.6267V9.75H34.9822V5.25H37.6267V5.775Z" fill="white" stroke="white" stroke-width="0.2" stroke-miterlimit="10"/>
<path d="M38.5333 9.75V5.25H39.1378L40.7244 8.025L42.3111 5.25H42.9156V9.75H42.3111V6.3L40.8755 8.775H40.5733L39.1378 6.3V9.75H38.5333Z" fill="white" stroke="white" stroke-width="0.2" stroke-miterlimit="10"/>
<path d="M45.56 9.825C45.338 9.83829 45.1156 9.8051 44.9074 9.72758C44.6991 9.65005 44.5096 9.52993 44.3511 9.375C44.1755 9.21292 44.0374 9.01505 43.9461 8.79497C43.8548 8.57489 43.8125 8.33781 43.8222 8.1V5.25H44.4267V8.1C44.4034 8.25645 44.416 8.41611 44.4635 8.56705C44.5111 8.71799 44.5924 8.85631 44.7014 8.97169C44.8104 9.08707 44.9442 9.17652 45.0928 9.23337C45.2415 9.29022 45.4012 9.313 45.56 9.3C45.8406 9.2963 46.1098 9.1894 46.3156 9C46.4249 8.87825 46.5081 8.73565 46.5601 8.5809C46.612 8.42616 46.6317 8.26253 46.6178 8.1V5.25H47.2222V8.1C47.2438 8.56733 47.0812 9.02463 46.7689 9.375C46.4391 9.67354 46.0062 9.83467 45.56 9.825Z" fill="white" stroke="white" stroke-width="0.2" stroke-miterlimit="10"/>
<path d="M51.5289 5.25L49.7911 7.2L51.6045 9.75H50.9245L49.4134 7.65L48.7334 8.475V9.75H48.1289V5.25H48.7334V7.575L50.7734 5.25H51.5289Z" fill="white" stroke="white" stroke-width="0.2" stroke-miterlimit="10"/>
<path d="M51.8311 9.75L53.5689 5.25H54.1733L55.9111 9.75H55.2311L54.8533 8.55H52.8889L52.4356 9.75H51.8311ZM53.1156 8.025H54.6267L53.8711 5.925L53.1156 8.025Z" fill="white" stroke="white" stroke-width="0.2" stroke-miterlimit="10"/>
<path d="M56.5911 9.75V5.25H57.2711L59.4622 8.775H59.5378V5.25H60.1422V9.75H59.5378L57.1956 6.075V9.75H56.5911Z" fill="white" stroke="white" stroke-width="0.2" stroke-miterlimit="10"/>
<path d="M62.6356 9.75001V5.25001H63.9956C64.6073 5.22668 65.204 5.44205 65.6578 5.85001C65.8771 6.06612 66.0511 6.32317 66.1699 6.60636C66.2887 6.88954 66.3498 7.19326 66.3498 7.50001C66.3498 7.80675 66.2887 8.11047 66.1699 8.39366C66.0511 8.67684 65.8771 8.93389 65.6578 9.15001C65.204 9.55797 64.6073 9.77334 63.9956 9.75001H62.6356ZM63.1644 9.22501H63.9956C64.4652 9.23879 64.9231 9.07836 65.28 8.77501C65.5923 8.42463 65.7549 7.96734 65.7333 7.50001C65.7549 7.03268 65.5923 6.57538 65.28 6.22501C64.9231 5.92166 64.4652 5.76122 63.9956 5.77501H63.1644V9.22501Z" fill="white" stroke="white" stroke-width="0.2" stroke-miterlimit="10"/>
<path d="M67.0933 9.75V5.25H67.6978V9.75H67.0933Z" fill="white" stroke="white" stroke-width="0.2" stroke-miterlimit="10"/>
</g>
<defs>
<linearGradient id="paint0_linear" x1="16.4711" y1="6.5325" x2="3.88644" y2="19.2104" gradientUnits="userSpaceOnUse">
<stop stop-color="#00A0FF"/>
<stop offset="0.01" stop-color="#00A1FF"/>
<stop offset="0.26" stop-color="#00BEFF"/>
<stop offset="0.51" stop-color="#00D2FF"/>
<stop offset="0.76" stop-color="#00DFFF"/>
<stop offset="1" stop-color="#00E3FF"/>
</linearGradient>
<linearGradient id="paint1_linear" x1="25.5604" y1="15" x2="7.28351" y2="15" gradientUnits="userSpaceOnUse">
<stop stop-color="#FFE000"/>
<stop offset="0.41" stop-color="#FFBD00"/>
<stop offset="0.78" stop-color="#FFA500"/>
<stop offset="1" stop-color="#FF9C00"/>
</linearGradient>
<linearGradient id="paint2_linear" x1="18.7605" y1="16.725" x2="1.69086" y2="33.9135" gradientUnits="userSpaceOnUse">
<stop stop-color="#FF3A44"/>
<stop offset="1" stop-color="#C31162"/>
</linearGradient>
<linearGradient id="paint3_linear" x1="5.51557" y1="0.134946" x2="13.1354" y2="7.81118" gradientUnits="userSpaceOnUse">
<stop stop-color="#32A071"/>
<stop offset="0.07" stop-color="#2DA771"/>
<stop offset="0.48" stop-color="#15CF74"/>
<stop offset="0.8" stop-color="#06E775"/>
<stop offset="1" stop-color="#00F076"/>
</linearGradient>
<clipPath id="clip0">
<rect width="102" height="30" fill="white"/>
</clipPath>
</defs>
</svg>
